<svg xmlns="http://www.w3.org/2000/svg" xml:space="preserve" viewBox="0 0 75.8 70.7">
  <path fill="#76b3e1" d="M75.8 15.4S50.9-3.4 31.5 1l-1.7.5c-2.6.8-5 2.4-6.6 4.6-.3.4-.5.8-.7 1.2l-7.2 12.1 12.3 2.4a22 22 0 0 0 17.6 3.5l22 4.3 8.6-14.2z"/>
  <linearGradient id="a" x1="11.67" x2="70.61" y1="826.64" y2="855.28" gradientTransform="translate(0 -826.6)" gradientUnits="userSpaceOnUse">
    <stop offset=".1" stop-color="#76b3e1"/>
    <stop offset=".3" stop-color="#dcf2fd"/>
    <stop offset="1" stop-color="#76b3e1"/>
  </linearGradient>
  <path fill="url(#a)" d="M75.8 15.4S50.9-3.4 31.5 1l-1.7.5c-2.6.8-5 2.4-6.6 4.6-.3.4-.5.8-.7 1.2l-7.2 12.1 12.3 2.4a22 22 0 0 0 17.6 3.5l22 4.3 8.6-14.2z" opacity=".3"/>
  <path fill="#518ac8" d="m23 15.1-1.7.5c-7.9 2.6-10.6 9.9-6.1 16.4a21.1 21.1 0 0 0 22.5 7.1l29.5-9.6c.1 0-24.8-18.8-44.2-14.4z"/>
  <linearGradient id="b" x1="43.99" x2="33.67" y1="840.67" y2="875.04" gradientTransform="translate(0 -826.6)" gradientUnits="userSpaceOnUse">
    <stop offset="0" stop-color="#76b3e1"/>
    <stop offset=".5" stop-color="#4377bb"/>
    <stop offset="1" stop-color="#1f3b77"/>
  </linearGradient>
  <path fill="url(#b)" d="m23 15.1-1.7.5c-7.9 2.6-10.6 9.9-6.1 16.4a21.1 21.1 0 0 0 22.5 7.1l29.5-9.6c.1 0-24.8-18.8-44.2-14.4z" opacity=".3"/>
  <linearGradient id="c" x1="7.34" x2="66.94" y1="855.66" y2="896.18" gradientTransform="translate(0 -826.6)" gradientUnits="userSpaceOnUse">
    <stop offset="0" stop-color="#315aa9"/>
    <stop offset=".5" stop-color="#518ac8"/>
    <stop offset="1" stop-color="#315aa9"/>
  </linearGradient>
  <path fill="url(#c)" d="M61.9 36.4c-5.4-6.8-14.3-9.6-22.6-7.1L9.8 38.8.5 55.3l52.8 9 9.5-16.8c1.9-3.2 1.7-7.3-.9-11.1z"/>
  <linearGradient id="d" x1="34.25" x2="10.2" y1="860.51" y2="948.7" gradientTransform="translate(0 -826.6)" gradientUnits="userSpaceOnUse">
    <stop offset="0" stop-color="#4377bb"/>
    <stop offset=".5" stop-color="#1a336b"/>
    <stop offset="1" stop-color="#1a336b"/>
  </linearGradient>
  <path fill="url(#d)" d="M52.6 52.9c-5.4-6.8-14.3-9.6-22.5-7.2L.5 55.3s25 18.8 44.3 14.4l1.7-.5c8-2.4 10.7-9.8 6.1-16.3z"/>
</svg>
