<svg width="207" height="211" viewBox="0 0 207 211" fill="none" xmlns="http://www.w3.org/2000/svg">
<path fill-rule="evenodd" clip-rule="evenodd" d="M164.576 0L107.177 0.580894L67 41.5793L67.3008 71.3064L40.1769 71.5809L0 112.579L0.580902 169.979L41.5793 210.156L98.9789 209.575L139.156 168.576L138.855 138.849L165.979 138.575L206.156 97.5764L205.575 40.1769L164.576 0ZM123.354 139.006L138.701 123.659L143.099 119.26L157.743 119.112L186.528 89.7384L186.112 48.6137L156.738 19.8285L115.614 20.2446L86.8284 49.6185L87.0459 71.1066L88.1764 71.0951L87.0571 72.2144L68.2253 91.0462L67.5079 91.7636L67.5007 91.0535L48.6137 91.2446L19.8284 120.618L20.2446 161.743L49.6184 190.528L90.7431 190.112L119.528 160.738L119.349 143.011L123.354 139.006Z" fill="url(#paint0_linear_2_77)"/>
<defs>
<linearGradient id="paint0_linear_2_77" x1="141" y1="-9.52866e-06" x2="-4.73324e-07" y2="298" gradientUnits="userSpaceOnUse">
<stop stop-color="#0092DE"/>
<stop offset="0.522317" stop-color="#0092DE" stop-opacity="0.51"/>
<stop offset="1" stop-color="#00A4FA" stop-opacity="0"/>
</linearGradient>
</defs>
</svg>
